<mxfile host="app.diagrams.net" modified="2022-10-25T14:18:11.783Z" agent="5.0 (Windows NT 10.0; Win64; x64) AppleWebKit/537.36 (KHTML, like Gecko) Chrome/106.0.0.0 Safari/537.36" etag="ZQpk-2LCFvLUyaMNODa3" version="20.5.1" type="github" pages="2">
  <diagram id="URG8Zn5BEwI4Zal7OHFu" name="Page-1">
    <mxGraphModel dx="1102" dy="629" grid="1" gridSize="10" guides="1" tooltips="1" connect="1" arrows="1" fold="1" page="1" pageScale="1" pageWidth="850" pageHeight="1100" math="0" shadow="0">
      <root>
        <mxCell id="0" />
        <mxCell id="1" parent="0" />
        <mxCell id="cvjREUoPtkwl2mc8mdV0-7" value="" style="edgeStyle=orthogonalEdgeStyle;rounded=0;orthogonalLoop=1;jettySize=auto;html=1;" parent="1" source="cvjREUoPtkwl2mc8mdV0-5" target="cvjREUoPtkwl2mc8mdV0-6" edge="1">
          <mxGeometry relative="1" as="geometry" />
        </mxCell>
        <mxCell id="cvjREUoPtkwl2mc8mdV0-5" value="Pelanggan" style="rounded=0;whiteSpace=wrap;html=1;" parent="1" vertex="1">
          <mxGeometry x="310" y="150" width="120" height="60" as="geometry" />
        </mxCell>
        <mxCell id="cvjREUoPtkwl2mc8mdV0-9" value="" style="edgeStyle=orthogonalEdgeStyle;rounded=0;orthogonalLoop=1;jettySize=auto;html=1;" parent="1" source="cvjREUoPtkwl2mc8mdV0-6" target="cvjREUoPtkwl2mc8mdV0-8" edge="1">
          <mxGeometry relative="1" as="geometry" />
        </mxCell>
        <mxCell id="cvjREUoPtkwl2mc8mdV0-6" value="Order" style="rounded=0;whiteSpace=wrap;html=1;" parent="1" vertex="1">
          <mxGeometry x="310" y="280" width="120" height="60" as="geometry" />
        </mxCell>
        <mxCell id="cvjREUoPtkwl2mc8mdV0-11" style="edgeStyle=orthogonalEdgeStyle;rounded=0;orthogonalLoop=1;jettySize=auto;html=1;" parent="1" source="cvjREUoPtkwl2mc8mdV0-8" target="cvjREUoPtkwl2mc8mdV0-10" edge="1">
          <mxGeometry relative="1" as="geometry" />
        </mxCell>
        <mxCell id="cvjREUoPtkwl2mc8mdV0-16" value="No" style="edgeLabel;html=1;align=center;verticalAlign=middle;resizable=0;points=[];" parent="cvjREUoPtkwl2mc8mdV0-11" vertex="1" connectable="0">
          <mxGeometry x="-0.3856" y="1" relative="1" as="geometry">
            <mxPoint as="offset" />
          </mxGeometry>
        </mxCell>
        <mxCell id="cvjREUoPtkwl2mc8mdV0-15" value="Yes" style="edgeStyle=orthogonalEdgeStyle;rounded=0;orthogonalLoop=1;jettySize=auto;html=1;" parent="1" source="cvjREUoPtkwl2mc8mdV0-8" target="cvjREUoPtkwl2mc8mdV0-14" edge="1">
          <mxGeometry relative="1" as="geometry" />
        </mxCell>
        <mxCell id="cvjREUoPtkwl2mc8mdV0-8" value="Register / Not" style="rhombus;whiteSpace=wrap;html=1;" parent="1" vertex="1">
          <mxGeometry x="315" y="380" width="110" height="110" as="geometry" />
        </mxCell>
        <mxCell id="cvjREUoPtkwl2mc8mdV0-13" value="" style="edgeStyle=orthogonalEdgeStyle;rounded=0;orthogonalLoop=1;jettySize=auto;html=1;" parent="1" source="cvjREUoPtkwl2mc8mdV0-10" target="cvjREUoPtkwl2mc8mdV0-12" edge="1">
          <mxGeometry relative="1" as="geometry" />
        </mxCell>
        <mxCell id="cvjREUoPtkwl2mc8mdV0-10" value="Register" style="rounded=0;whiteSpace=wrap;html=1;" parent="1" vertex="1">
          <mxGeometry x="545" y="405" width="120" height="60" as="geometry" />
        </mxCell>
        <mxCell id="cvjREUoPtkwl2mc8mdV0-19" value="" style="edgeStyle=orthogonalEdgeStyle;rounded=0;orthogonalLoop=1;jettySize=auto;html=1;" parent="1" source="cvjREUoPtkwl2mc8mdV0-12" target="cvjREUoPtkwl2mc8mdV0-14" edge="1">
          <mxGeometry relative="1" as="geometry" />
        </mxCell>
        <mxCell id="cvjREUoPtkwl2mc8mdV0-12" value="&lt;blockquote style=&quot;margin: 0 0 0 40px; border: none; padding: 0px;&quot;&gt;Name,&lt;br&gt;&amp;nbsp;Phone Number,&lt;br&gt;&amp;nbsp;Kode Pelanggan,&lt;/blockquote&gt;&lt;blockquote style=&quot;margin: 0 0 0 40px; border: none; padding: 0px;&quot;&gt;&lt;br&gt;&lt;/blockquote&gt;" style="shape=parallelogram;perimeter=parallelogramPerimeter;whiteSpace=wrap;html=1;fixedSize=1;align=left;" parent="1" vertex="1">
          <mxGeometry x="495" y="530" width="220" height="110" as="geometry" />
        </mxCell>
        <mxCell id="cvjREUoPtkwl2mc8mdV0-18" value="" style="edgeStyle=orthogonalEdgeStyle;rounded=0;orthogonalLoop=1;jettySize=auto;html=1;" parent="1" source="cvjREUoPtkwl2mc8mdV0-14" target="cvjREUoPtkwl2mc8mdV0-17" edge="1">
          <mxGeometry relative="1" as="geometry" />
        </mxCell>
        <mxCell id="cvjREUoPtkwl2mc8mdV0-14" value="Grouping&amp;nbsp;" style="rounded=0;whiteSpace=wrap;html=1;" parent="1" vertex="1">
          <mxGeometry x="310" y="555" width="120" height="60" as="geometry" />
        </mxCell>
        <mxCell id="cvjREUoPtkwl2mc8mdV0-22" value="" style="edgeStyle=orthogonalEdgeStyle;rounded=0;orthogonalLoop=1;jettySize=auto;html=1;" parent="1" source="cvjREUoPtkwl2mc8mdV0-17" target="cvjREUoPtkwl2mc8mdV0-21" edge="1">
          <mxGeometry relative="1" as="geometry" />
        </mxCell>
        <mxCell id="cvjREUoPtkwl2mc8mdV0-17" value="&lt;blockquote style=&quot;margin: 0 0 0 40px; border: none; padding: 0px;&quot;&gt;&lt;div style=&quot;&quot;&gt;&lt;span style=&quot;background-color: initial;&quot;&gt;Sum of item,&lt;/span&gt;&lt;/div&gt;&lt;div style=&quot;&quot;&gt;&lt;span style=&quot;background-color: initial;&quot;&gt;Weight,&lt;/span&gt;&lt;/div&gt;&lt;div style=&quot;&quot;&gt;&lt;span style=&quot;background-color: initial;&quot;&gt;Price,&lt;/span&gt;&lt;/div&gt;&lt;div style=&quot;&quot;&gt;&lt;span style=&quot;background-color: initial;&quot;&gt;Categories&lt;/span&gt;&lt;/div&gt;&lt;/blockquote&gt;" style="shape=parallelogram;perimeter=parallelogramPerimeter;whiteSpace=wrap;html=1;fixedSize=1;align=left;" parent="1" vertex="1">
          <mxGeometry x="270" y="670" width="200" height="120" as="geometry" />
        </mxCell>
        <mxCell id="cvjREUoPtkwl2mc8mdV0-24" value="" style="edgeStyle=orthogonalEdgeStyle;rounded=0;orthogonalLoop=1;jettySize=auto;html=1;" parent="1" source="cvjREUoPtkwl2mc8mdV0-21" target="cvjREUoPtkwl2mc8mdV0-23" edge="1">
          <mxGeometry relative="1" as="geometry" />
        </mxCell>
        <mxCell id="cvjREUoPtkwl2mc8mdV0-21" value="Report Customer" style="rounded=0;whiteSpace=wrap;html=1;" parent="1" vertex="1">
          <mxGeometry x="310" y="840" width="120" height="60" as="geometry" />
        </mxCell>
        <mxCell id="cvjREUoPtkwl2mc8mdV0-26" value="" style="edgeStyle=orthogonalEdgeStyle;rounded=0;orthogonalLoop=1;jettySize=auto;html=1;" parent="1" source="cvjREUoPtkwl2mc8mdV0-23" edge="1">
          <mxGeometry relative="1" as="geometry">
            <mxPoint x="605" y="970" as="targetPoint" />
          </mxGeometry>
        </mxCell>
        <mxCell id="cvjREUoPtkwl2mc8mdV0-23" value="Proses" style="rounded=0;whiteSpace=wrap;html=1;" parent="1" vertex="1">
          <mxGeometry x="545" y="840" width="120" height="60" as="geometry" />
        </mxCell>
        <mxCell id="cvjREUoPtkwl2mc8mdV0-28" value="End" style="ellipse;whiteSpace=wrap;html=1;" parent="1" vertex="1">
          <mxGeometry x="545" y="970" width="120" height="80" as="geometry" />
        </mxCell>
        <mxCell id="cvjREUoPtkwl2mc8mdV0-30" value="" style="edgeStyle=orthogonalEdgeStyle;rounded=0;orthogonalLoop=1;jettySize=auto;html=1;" parent="1" source="cvjREUoPtkwl2mc8mdV0-29" target="cvjREUoPtkwl2mc8mdV0-5" edge="1">
          <mxGeometry relative="1" as="geometry" />
        </mxCell>
        <mxCell id="cvjREUoPtkwl2mc8mdV0-29" value="End" style="ellipse;whiteSpace=wrap;html=1;" parent="1" vertex="1">
          <mxGeometry x="310" y="20" width="120" height="80" as="geometry" />
        </mxCell>
      </root>
    </mxGraphModel>
  </diagram>
  <diagram id="l47V7FRBKMvQzRHOTQuT" name="Register">
    <mxGraphModel dx="1102" dy="629" grid="1" gridSize="10" guides="1" tooltips="1" connect="1" arrows="1" fold="1" page="1" pageScale="1" pageWidth="850" pageHeight="1100" math="0" shadow="0">
      <root>
        <mxCell id="0" />
        <mxCell id="1" parent="0" />
        <mxCell id="q0jzcN2fzwEdablnNgwh-2" value="" style="edgeStyle=orthogonalEdgeStyle;rounded=0;orthogonalLoop=1;jettySize=auto;html=1;" edge="1" parent="1" source="f52fbaDjqYCqWVp8LAHh-2" target="q0jzcN2fzwEdablnNgwh-1">
          <mxGeometry relative="1" as="geometry" />
        </mxCell>
        <mxCell id="f52fbaDjqYCqWVp8LAHh-2" value="Start" style="ellipse;whiteSpace=wrap;html=1;" parent="1" vertex="1">
          <mxGeometry x="350" y="10" width="120" height="60" as="geometry" />
        </mxCell>
        <mxCell id="q0jzcN2fzwEdablnNgwh-4" value="" style="edgeStyle=orthogonalEdgeStyle;rounded=0;orthogonalLoop=1;jettySize=auto;html=1;" edge="1" parent="1" source="q0jzcN2fzwEdablnNgwh-1" target="q0jzcN2fzwEdablnNgwh-3">
          <mxGeometry relative="1" as="geometry" />
        </mxCell>
        <mxCell id="q0jzcN2fzwEdablnNgwh-1" value="Login" style="rounded=0;whiteSpace=wrap;html=1;" vertex="1" parent="1">
          <mxGeometry x="350" y="130" width="120" height="60" as="geometry" />
        </mxCell>
        <mxCell id="q0jzcN2fzwEdablnNgwh-6" value="" style="edgeStyle=orthogonalEdgeStyle;rounded=0;orthogonalLoop=1;jettySize=auto;html=1;" edge="1" parent="1" source="q0jzcN2fzwEdablnNgwh-3" target="q0jzcN2fzwEdablnNgwh-5">
          <mxGeometry relative="1" as="geometry" />
        </mxCell>
        <mxCell id="q0jzcN2fzwEdablnNgwh-8" style="edgeStyle=orthogonalEdgeStyle;rounded=0;orthogonalLoop=1;jettySize=auto;html=1;" edge="1" parent="1" source="q0jzcN2fzwEdablnNgwh-3" target="q0jzcN2fzwEdablnNgwh-7">
          <mxGeometry relative="1" as="geometry" />
        </mxCell>
        <mxCell id="q0jzcN2fzwEdablnNgwh-3" value="Google / User" style="rhombus;whiteSpace=wrap;html=1;" vertex="1" parent="1">
          <mxGeometry x="340" y="230" width="140" height="140" as="geometry" />
        </mxCell>
        <mxCell id="q0jzcN2fzwEdablnNgwh-10" value="" style="edgeStyle=orthogonalEdgeStyle;rounded=0;orthogonalLoop=1;jettySize=auto;html=1;" edge="1" parent="1" source="q0jzcN2fzwEdablnNgwh-5" target="q0jzcN2fzwEdablnNgwh-9">
          <mxGeometry relative="1" as="geometry" />
        </mxCell>
        <mxCell id="q0jzcN2fzwEdablnNgwh-5" value="Authorize" style="whiteSpace=wrap;html=1;" vertex="1" parent="1">
          <mxGeometry x="130" y="270" width="120" height="60" as="geometry" />
        </mxCell>
        <mxCell id="q0jzcN2fzwEdablnNgwh-14" value="" style="edgeStyle=orthogonalEdgeStyle;rounded=0;orthogonalLoop=1;jettySize=auto;html=1;" edge="1" parent="1" source="q0jzcN2fzwEdablnNgwh-7" target="q0jzcN2fzwEdablnNgwh-13">
          <mxGeometry relative="1" as="geometry" />
        </mxCell>
        <mxCell id="q0jzcN2fzwEdablnNgwh-7" value="Login Proggress" style="whiteSpace=wrap;html=1;" vertex="1" parent="1">
          <mxGeometry x="570" y="270" width="120" height="60" as="geometry" />
        </mxCell>
        <mxCell id="q0jzcN2fzwEdablnNgwh-12" value="" style="edgeStyle=orthogonalEdgeStyle;rounded=0;orthogonalLoop=1;jettySize=auto;html=1;" edge="1" parent="1" source="q0jzcN2fzwEdablnNgwh-9" target="q0jzcN2fzwEdablnNgwh-11">
          <mxGeometry relative="1" as="geometry" />
        </mxCell>
        <mxCell id="q0jzcN2fzwEdablnNgwh-9" value="Get Data" style="shape=parallelogram;perimeter=parallelogramPerimeter;whiteSpace=wrap;html=1;fixedSize=1;" vertex="1" parent="1">
          <mxGeometry x="130" y="420" width="120" height="60" as="geometry" />
        </mxCell>
        <mxCell id="q0jzcN2fzwEdablnNgwh-11" value="Registered / Not" style="rhombus;whiteSpace=wrap;html=1;" vertex="1" parent="1">
          <mxGeometry x="122.5" y="530" width="135" height="130" as="geometry" />
        </mxCell>
        <mxCell id="q0jzcN2fzwEdablnNgwh-16" value="" style="edgeStyle=orthogonalEdgeStyle;rounded=0;orthogonalLoop=1;jettySize=auto;html=1;" edge="1" parent="1" source="q0jzcN2fzwEdablnNgwh-13" target="q0jzcN2fzwEdablnNgwh-15">
          <mxGeometry relative="1" as="geometry" />
        </mxCell>
        <mxCell id="q0jzcN2fzwEdablnNgwh-17" value="Not" style="edgeLabel;html=1;align=center;verticalAlign=middle;resizable=0;points=[];" vertex="1" connectable="0" parent="q0jzcN2fzwEdablnNgwh-16">
          <mxGeometry x="0.2099" relative="1" as="geometry">
            <mxPoint as="offset" />
          </mxGeometry>
        </mxCell>
        <mxCell id="q0jzcN2fzwEdablnNgwh-13" value="Registered / Not" style="rhombus;whiteSpace=wrap;html=1;" vertex="1" parent="1">
          <mxGeometry x="570" y="410" width="120" height="120" as="geometry" />
        </mxCell>
        <mxCell id="q0jzcN2fzwEdablnNgwh-15" value="Register" style="rounded=0;whiteSpace=wrap;html=1;" vertex="1" parent="1">
          <mxGeometry x="350" y="440" width="120" height="60" as="geometry" />
        </mxCell>
        <mxCell id="q0jzcN2fzwEdablnNgwh-18" value="Dashboard" style="rounded=0;whiteSpace=wrap;html=1;" vertex="1" parent="1">
          <mxGeometry x="570" y="750" width="120" height="60" as="geometry" />
        </mxCell>
      </root>
    </mxGraphModel>
  </diagram>
</mxfile>
